<mxfile host="app.diagrams.net" modified="2023-06-06T14:05:51.140Z" agent="Mozilla/5.0 (Windows NT 10.0; Win64; x64) AppleWebKit/537.36 (KHTML, like Gecko) Chrome/114.0.0.0 Safari/537.36 Edg/114.0.1823.37" etag="21Mfke97qY8Wae645mNR" version="21.3.3" type="device">
  <diagram name="Page-1" id="kxhbpXD4t4TTEIjENoJl">
    <mxGraphModel dx="1434" dy="788" grid="1" gridSize="10" guides="1" tooltips="1" connect="1" arrows="1" fold="1" page="1" pageScale="1" pageWidth="827" pageHeight="1169" math="0" shadow="0">
      <root>
        <mxCell id="0" />
        <mxCell id="1" parent="0" />
        <mxCell id="5hsE9kRwm3gZ5ivZTZri-31" style="edgeStyle=orthogonalEdgeStyle;rounded=0;orthogonalLoop=1;jettySize=auto;html=1;exitX=0.5;exitY=1;exitDx=0;exitDy=0;exitPerimeter=0;entryX=0.5;entryY=0;entryDx=0;entryDy=0;" parent="1" source="5hsE9kRwm3gZ5ivZTZri-1" target="5hsE9kRwm3gZ5ivZTZri-2" edge="1">
          <mxGeometry relative="1" as="geometry" />
        </mxCell>
        <mxCell id="5hsE9kRwm3gZ5ivZTZri-1" value="Input:&lt;br&gt;&lt;b&gt;List&amp;lt;int&amp;gt; temp = new List(1) { 1 }&lt;/b&gt;" style="shape=note;whiteSpace=wrap;html=1;backgroundOutline=1;darkOpacity=0.05;fillColor=#dae8fc;strokeColor=#6c8ebf;" parent="1" vertex="1">
          <mxGeometry x="300" y="20" width="190" height="60" as="geometry" />
        </mxCell>
        <mxCell id="5hsE9kRwm3gZ5ivZTZri-32" style="rounded=0;orthogonalLoop=1;jettySize=auto;html=1;exitX=0;exitY=0.5;exitDx=0;exitDy=0;entryX=0.5;entryY=0;entryDx=0;entryDy=0;edgeStyle=orthogonalEdgeStyle;" parent="1" source="5hsE9kRwm3gZ5ivZTZri-2" target="5hsE9kRwm3gZ5ivZTZri-3" edge="1">
          <mxGeometry relative="1" as="geometry" />
        </mxCell>
        <mxCell id="5hsE9kRwm3gZ5ivZTZri-33" style="rounded=0;orthogonalLoop=1;jettySize=auto;html=1;exitX=1;exitY=0.5;exitDx=0;exitDy=0;entryX=0.5;entryY=0;entryDx=0;entryDy=0;edgeStyle=orthogonalEdgeStyle;" parent="1" source="5hsE9kRwm3gZ5ivZTZri-2" target="5hsE9kRwm3gZ5ivZTZri-4" edge="1">
          <mxGeometry relative="1" as="geometry" />
        </mxCell>
        <mxCell id="5hsE9kRwm3gZ5ivZTZri-2" value="&lt;b&gt;BindLocalDeclarationStatement&lt;/b&gt; (&lt;i&gt;Binder_Statements.cs&lt;/i&gt;)" style="rounded=0;whiteSpace=wrap;html=1;fillColor=#d5e8d4;strokeColor=#82b366;" parent="1" vertex="1">
          <mxGeometry x="292.5" y="120" width="205" height="40" as="geometry" />
        </mxCell>
        <mxCell id="5hsE9kRwm3gZ5ivZTZri-3" value="&lt;b&gt;BindVariableTypeWithAnnotations&lt;/b&gt;&lt;br&gt;(&lt;i&gt;Binder_Statements.cs&lt;/i&gt;)" style="rounded=0;whiteSpace=wrap;html=1;fillColor=#d5e8d4;strokeColor=#82b366;" parent="1" vertex="1">
          <mxGeometry x="80" y="200" width="200" height="40" as="geometry" />
        </mxCell>
        <mxCell id="5hsE9kRwm3gZ5ivZTZri-34" style="rounded=0;orthogonalLoop=1;jettySize=auto;html=1;exitX=0.5;exitY=1;exitDx=0;exitDy=0;entryX=0.5;entryY=0;entryDx=0;entryDy=0;" parent="1" source="5hsE9kRwm3gZ5ivZTZri-4" target="5hsE9kRwm3gZ5ivZTZri-5" edge="1">
          <mxGeometry relative="1" as="geometry" />
        </mxCell>
        <mxCell id="5hsE9kRwm3gZ5ivZTZri-4" value="&lt;b&gt;BindVariableDeclaration&lt;/b&gt;&lt;br&gt;(&lt;i&gt;Binder_Statements.cs&lt;/i&gt;)" style="rounded=0;whiteSpace=wrap;html=1;fillColor=#d5e8d4;strokeColor=#82b366;" parent="1" vertex="1">
          <mxGeometry x="445" y="200" width="150" height="40" as="geometry" />
        </mxCell>
        <mxCell id="5hsE9kRwm3gZ5ivZTZri-9" style="rounded=0;orthogonalLoop=1;jettySize=auto;html=1;exitX=0;exitY=0.5;exitDx=0;exitDy=0;entryX=0.5;entryY=0;entryDx=0;entryDy=0;edgeStyle=orthogonalEdgeStyle;" parent="1" source="5hsE9kRwm3gZ5ivZTZri-5" target="5hsE9kRwm3gZ5ivZTZri-6" edge="1">
          <mxGeometry relative="1" as="geometry" />
        </mxCell>
        <mxCell id="5hsE9kRwm3gZ5ivZTZri-11" style="rounded=0;orthogonalLoop=1;jettySize=auto;html=1;exitX=1;exitY=0.5;exitDx=0;exitDy=0;entryX=0.5;entryY=0;entryDx=0;entryDy=0;edgeStyle=orthogonalEdgeStyle;" parent="1" source="5hsE9kRwm3gZ5ivZTZri-5" target="5hsE9kRwm3gZ5ivZTZri-8" edge="1">
          <mxGeometry relative="1" as="geometry" />
        </mxCell>
        <mxCell id="5hsE9kRwm3gZ5ivZTZri-5" value="&lt;b&gt;BindClassCreationExpression&lt;br&gt;&lt;/b&gt;(&lt;i&gt;Binder_Expressions.cs&lt;/i&gt;)" style="whiteSpace=wrap;html=1;fillColor=#d5e8d4;strokeColor=#82b366;" parent="1" vertex="1">
          <mxGeometry x="430" y="280" width="180" height="40" as="geometry" />
        </mxCell>
        <mxCell id="5hsE9kRwm3gZ5ivZTZri-6" value="&lt;b&gt;BindArgumentsAndNames&lt;br&gt;&lt;/b&gt;(&lt;i&gt;Binder_Expressions.cs&lt;/i&gt;)" style="whiteSpace=wrap;html=1;fillColor=#d5e8d4;strokeColor=#82b366;" parent="1" vertex="1">
          <mxGeometry x="300" y="360" width="160" height="40" as="geometry" />
        </mxCell>
        <mxCell id="5hsE9kRwm3gZ5ivZTZri-26" style="rounded=0;orthogonalLoop=1;jettySize=auto;html=1;exitX=0.5;exitY=1;exitDx=0;exitDy=0;entryX=0.5;entryY=0;entryDx=0;entryDy=0;" parent="1" source="5hsE9kRwm3gZ5ivZTZri-8" target="5hsE9kRwm3gZ5ivZTZri-12" edge="1">
          <mxGeometry relative="1" as="geometry" />
        </mxCell>
        <mxCell id="5hsE9kRwm3gZ5ivZTZri-8" value="&lt;b&gt;BindInitializerExpression&lt;/b&gt;&lt;br&gt;(&lt;i&gt;Binder_Expressions.cs&lt;/i&gt;)" style="rounded=0;whiteSpace=wrap;html=1;fillColor=#d5e8d4;strokeColor=#82b366;" parent="1" vertex="1">
          <mxGeometry x="595" y="360" width="150" height="40" as="geometry" />
        </mxCell>
        <mxCell id="5hsE9kRwm3gZ5ivZTZri-27" style="rounded=0;orthogonalLoop=1;jettySize=auto;html=1;exitX=0.5;exitY=1;exitDx=0;exitDy=0;entryX=0.5;entryY=0;entryDx=0;entryDy=0;" parent="1" source="5hsE9kRwm3gZ5ivZTZri-12" target="5hsE9kRwm3gZ5ivZTZri-13" edge="1">
          <mxGeometry relative="1" as="geometry" />
        </mxCell>
        <mxCell id="5hsE9kRwm3gZ5ivZTZri-12" value="&lt;b&gt;BindCollectionInitializerElement&lt;/b&gt;&lt;br&gt;(&lt;i&gt;Binder_Expressions.cs&lt;/i&gt;)" style="rounded=0;whiteSpace=wrap;html=1;fillColor=#d5e8d4;strokeColor=#82b366;" parent="1" vertex="1">
          <mxGeometry x="575" y="440" width="190" height="40" as="geometry" />
        </mxCell>
        <mxCell id="5hsE9kRwm3gZ5ivZTZri-28" style="rounded=0;orthogonalLoop=1;jettySize=auto;html=1;exitX=0.5;exitY=1;exitDx=0;exitDy=0;entryX=0.5;entryY=0;entryDx=0;entryDy=0;" parent="1" source="5hsE9kRwm3gZ5ivZTZri-13" target="5hsE9kRwm3gZ5ivZTZri-15" edge="1">
          <mxGeometry relative="1" as="geometry" />
        </mxCell>
        <mxCell id="5hsE9kRwm3gZ5ivZTZri-13" value="&amp;nbsp;&lt;b&gt;BindCollectionInitializerElementAddMethod&lt;/b&gt;&lt;br&gt;(&lt;i&gt;Binder_Expresions.cs&lt;/i&gt;)" style="rounded=0;whiteSpace=wrap;html=1;fillColor=#d5e8d4;strokeColor=#82b366;" parent="1" vertex="1">
          <mxGeometry x="540" y="520" width="260" height="40" as="geometry" />
        </mxCell>
        <mxCell id="5hsE9kRwm3gZ5ivZTZri-30" style="rounded=0;orthogonalLoop=1;jettySize=auto;html=1;exitX=0.5;exitY=1;exitDx=0;exitDy=0;entryX=0.5;entryY=0;entryDx=0;entryDy=0;entryPerimeter=0;" parent="1" source="5hsE9kRwm3gZ5ivZTZri-15" target="5hsE9kRwm3gZ5ivZTZri-21" edge="1">
          <mxGeometry relative="1" as="geometry">
            <mxPoint x="560" y="1070" as="targetPoint" />
          </mxGeometry>
        </mxCell>
        <mxCell id="5hsE9kRwm3gZ5ivZTZri-15" value="overload resolution + best candidate + type checking" style="rounded=0;whiteSpace=wrap;html=1;fillColor=#d5e8d4;strokeColor=#82b366;" parent="1" vertex="1">
          <mxGeometry x="610" y="600" width="120" height="60" as="geometry" />
        </mxCell>
        <mxCell id="5hsE9kRwm3gZ5ivZTZri-25" style="rounded=0;orthogonalLoop=1;jettySize=auto;html=1;exitX=0.5;exitY=1;exitDx=0;exitDy=0;entryX=0.5;entryY=0;entryDx=0;entryDy=0;" parent="1" source="5hsE9kRwm3gZ5ivZTZri-18" target="5hsE9kRwm3gZ5ivZTZri-19" edge="1">
          <mxGeometry relative="1" as="geometry" />
        </mxCell>
        <mxCell id="5hsE9kRwm3gZ5ivZTZri-29" style="rounded=0;orthogonalLoop=1;jettySize=auto;html=1;exitX=0.5;exitY=1;exitDx=0;exitDy=0;entryX=0.5;entryY=0;entryDx=0;entryDy=0;entryPerimeter=0;" parent="1" source="5hsE9kRwm3gZ5ivZTZri-19" target="5hsE9kRwm3gZ5ivZTZri-21" edge="1">
          <mxGeometry relative="1" as="geometry" />
        </mxCell>
        <mxCell id="5hsE9kRwm3gZ5ivZTZri-19" value="&lt;b&gt;CoerceArguments&lt;/b&gt;&lt;br&gt;(&lt;i&gt;Binder_Expression.cs&lt;/i&gt;)" style="rounded=0;whiteSpace=wrap;html=1;fillColor=#d5e8d4;strokeColor=#82b366;" parent="1" vertex="1">
          <mxGeometry x="317.5" y="760" width="125" height="40" as="geometry" />
        </mxCell>
        <mxCell id="5hsE9kRwm3gZ5ivZTZri-21" value="Output:&lt;br&gt;&lt;b&gt;&amp;nbsp;BoundObjectCreationExpression&lt;/b&gt;" style="shape=note;whiteSpace=wrap;html=1;backgroundOutline=1;darkOpacity=0.05;fillColor=#dae8fc;strokeColor=#6c8ebf;" parent="1" vertex="1">
          <mxGeometry x="470" y="840" width="205" height="60" as="geometry" />
        </mxCell>
        <mxCell id="5hsE9kRwm3gZ5ivZTZri-35" value="" style="swimlane;startSize=0;fillColor=#ffffff;strokeColor=#000000;swimlaneFillColor=default;fillStyle=solid;" parent="1" vertex="1">
          <mxGeometry x="265" y="440" width="230" height="300" as="geometry" />
        </mxCell>
        <mxCell id="5hsE9kRwm3gZ5ivZTZri-7" value="&lt;b&gt;ObjectCreationOverloadResolution&lt;/b&gt;&lt;br&gt;(&lt;i&gt;OverloadResolution.cs&lt;/i&gt;)" style="rounded=0;whiteSpace=wrap;html=1;fillColor=#d5e8d4;strokeColor=#82b366;" parent="5hsE9kRwm3gZ5ivZTZri-35" vertex="1">
          <mxGeometry x="10" y="28" width="210" height="40" as="geometry" />
        </mxCell>
        <mxCell id="5hsE9kRwm3gZ5ivZTZri-14" value="&amp;nbsp;&lt;b&gt;AddConstructorToCandidateSet&lt;/b&gt;&lt;br&gt;(&lt;i&gt;OverloadResolution.cs&lt;/i&gt;)" style="rounded=0;whiteSpace=wrap;html=1;fillColor=#d5e8d4;strokeColor=#82b366;" parent="5hsE9kRwm3gZ5ivZTZri-35" vertex="1">
          <mxGeometry x="20" y="90" width="190" height="40" as="geometry" />
        </mxCell>
        <mxCell id="5hsE9kRwm3gZ5ivZTZri-22" style="rounded=0;orthogonalLoop=1;jettySize=auto;html=1;entryX=0.547;entryY=0.003;entryDx=0;entryDy=0;entryPerimeter=0;" parent="5hsE9kRwm3gZ5ivZTZri-35" target="5hsE9kRwm3gZ5ivZTZri-14" edge="1">
          <mxGeometry relative="1" as="geometry">
            <mxPoint x="124" y="70" as="sourcePoint" />
          </mxGeometry>
        </mxCell>
        <mxCell id="5hsE9kRwm3gZ5ivZTZri-16" value="IsApplicable&lt;br&gt;(OverloadResolution.cs)" style="swimlane;whiteSpace=wrap;html=1;" parent="5hsE9kRwm3gZ5ivZTZri-35" vertex="1">
          <mxGeometry x="15" y="150" width="200" height="90" as="geometry" />
        </mxCell>
        <mxCell id="5hsE9kRwm3gZ5ivZTZri-17" value="&lt;b&gt;CheckArgumentForApplicability&lt;/b&gt;&lt;br&gt;(&lt;i&gt;OverloadResolutions.cs&lt;/i&gt;)" style="rounded=0;whiteSpace=wrap;html=1;fillColor=#d5e8d4;strokeColor=#82b366;" parent="5hsE9kRwm3gZ5ivZTZri-16" vertex="1">
          <mxGeometry x="9.25" y="40" width="181.5" height="40" as="geometry" />
        </mxCell>
        <mxCell id="5hsE9kRwm3gZ5ivZTZri-23" style="rounded=0;orthogonalLoop=1;jettySize=auto;html=1;exitX=0.5;exitY=1;exitDx=0;exitDy=0;entryX=0.5;entryY=0;entryDx=0;entryDy=0;" parent="5hsE9kRwm3gZ5ivZTZri-35" source="5hsE9kRwm3gZ5ivZTZri-14" target="5hsE9kRwm3gZ5ivZTZri-16" edge="1">
          <mxGeometry relative="1" as="geometry" />
        </mxCell>
        <mxCell id="5hsE9kRwm3gZ5ivZTZri-18" value="Choose best candidate&lt;br&gt;(&lt;i&gt;OverloadResolution.cs&lt;/i&gt;)" style="rounded=0;whiteSpace=wrap;html=1;fillColor=#d5e8d4;strokeColor=#82b366;" parent="5hsE9kRwm3gZ5ivZTZri-35" vertex="1">
          <mxGeometry x="45" y="250" width="140" height="40" as="geometry" />
        </mxCell>
        <mxCell id="5hsE9kRwm3gZ5ivZTZri-24" style="rounded=0;orthogonalLoop=1;jettySize=auto;html=1;exitX=0.5;exitY=1;exitDx=0;exitDy=0;entryX=0.5;entryY=0;entryDx=0;entryDy=0;" parent="5hsE9kRwm3gZ5ivZTZri-35" source="5hsE9kRwm3gZ5ivZTZri-16" target="5hsE9kRwm3gZ5ivZTZri-18" edge="1">
          <mxGeometry relative="1" as="geometry" />
        </mxCell>
        <mxCell id="5hsE9kRwm3gZ5ivZTZri-36" value="Overload resolution" style="text;html=1;align=center;verticalAlign=middle;resizable=0;points=[];autosize=1;strokeColor=none;fillColor=none;" parent="5hsE9kRwm3gZ5ivZTZri-35" vertex="1">
          <mxGeometry x="10" y="-2" width="130" height="30" as="geometry" />
        </mxCell>
        <mxCell id="5hsE9kRwm3gZ5ivZTZri-10" style="rounded=0;orthogonalLoop=1;jettySize=auto;html=1;exitX=0.5;exitY=1;exitDx=0;exitDy=0;entryX=0.5;entryY=0;entryDx=0;entryDy=0;" parent="1" source="5hsE9kRwm3gZ5ivZTZri-6" target="5hsE9kRwm3gZ5ivZTZri-35" edge="1">
          <mxGeometry relative="1" as="geometry" />
        </mxCell>
      </root>
    </mxGraphModel>
  </diagram>
</mxfile>
